<?xml version="1.0"?>
<svg xmlns="http://www.w3.org/2000/svg" xmlns:xlink="http://www.w3.org/1999/xlink" xmlns:svgjs="http://svgjs.com/svgjs" version="1.1" width="512" height="512" x="0" y="0" viewBox="0 0 512 512" style="enable-background:new 0 0 512 512" xml:space="preserve" class=""><g><g xmlns="http://www.w3.org/2000/svg"><path d="m498.404 475.679h-15.205v-89.173h15.205c4.142 0 7.5-3.358 7.5-7.5s-3.358-7.5-7.5-7.5h-150.076v-19.909c0-13.586-11.053-24.64-24.64-24.64h-13.443v-15.472c0-14.899-11.912-27.06-26.711-27.48v-121.005c0-4.142-3.358-7.5-7.5-7.5s-7.5 3.358-7.5 7.5v120.984h-25.066v-173.361h25.066v17.377c0 4.142 3.358 7.5 7.5 7.5s7.5-3.358 7.5-7.5v-19.877c0-6.893-5.607-12.5-12.5-12.5h-7.534v-25.437c13.562-2.929 24.261-13.628 27.19-27.19h91.92v13.679l-73.334 139.339c-3.307.355-6.3 2.26-7.984 5.175-1.87 3.238-1.87 7.261 0 10.5l18.013 31.198c1.869 3.239 5.354 5.251 9.094 5.251h70.601c4.142 0 7.5-3.358 7.5-7.5s-3.358-7.5-7.5-7.5h-68.002l-12.817-22.2h143.861l-12.817 22.2h-15.225c-4.142 0-7.5 3.358-7.5 7.5s3.358 7.5 7.5 7.5h17.822c3.739 0 7.223-2.011 9.093-5.25l18.014-31.201c1.869-3.238 1.869-7.262-.001-10.5-1.683-2.915-4.677-4.821-7.984-5.175l-73.333-139.337v-13.68h28.074c4.142 0 7.5-3.358 7.5-7.5s-3.358-7.5-7.5-7.5h-134.994c-3.453-15.981-17.692-27.995-34.691-27.995s-31.238 12.014-34.69 27.995h-134.995c-4.142 0-7.5 3.358-7.5 7.5s3.358 7.5 7.5 7.5h28.074v13.679l-73.333 139.34c-3.307.355-6.3 2.26-7.984 5.175-1.87 3.238-1.87 7.261-.001 10.5v.001l18.014 31.201c1.87 3.238 5.354 5.249 9.093 5.249h123.423c3.739 0 7.223-2.011 9.093-5.25l18.013-31.2c1.87-3.238 1.87-7.262 0-10.5-1.682-2.915-4.676-4.821-7.984-5.176l-73.334-139.339v-13.68h91.92c2.93 13.562 13.628 24.261 27.19 27.19v25.437h-7.533c-6.893 0-12.5 5.607-12.5 12.5v175.882c-14.799.42-26.711 12.581-26.711 27.48v15.472h-13.443c-13.586 0-24.64 11.054-24.64 24.64v19.909h-97.989c-32.856 0-59.587 26.73-59.587 59.587 0 32.856 26.73 59.586 59.587 59.586h42.057v10.815c0 3.918 2.156 7.482 5.626 9.301 3.47 1.818 7.627 1.564 10.849-.667l18.334-12.688 18.333 12.688c1.794 1.241 3.878 1.871 5.972 1.871 1.667 0 3.339-.399 4.877-1.205 3.47-1.819 5.626-5.383 5.626-9.301v-10.815h321.047c4.142 0 7.5-3.358 7.5-7.5s-3.358-7.498-7.5-7.498zm-115.793-279.74h-56.344l56.344-107.058zm15-107.058 56.344 107.058h-56.344zm-283.222 0v107.058h-56.344zm66.613 144.258h-118.226l-12.817-22.2h143.861zm4.732-37.2h-56.344v-107.058zm49.771-160.444c0-11.301 9.194-20.495 20.495-20.495s20.495 9.194 20.495 20.495-9.194 20.495-20.495 20.495-20.495-9.194-20.495-20.495zm-18.75 275.989c0-6.893 5.607-12.5 12.5-12.5h53.489c6.893 0 12.5 5.607 12.5 12.5v15.472h-78.489zm-151.072 164.195c-24.585 0-44.587-20.001-44.587-44.587 0-24.585 20.001-44.586 44.587-44.586h10.44c-3.733 5.48-5.919 12.094-5.919 19.211v50.751c0 7.117 2.186 13.731 5.92 19.211zm96.673 17.229-15.54-10.754c-2.568-1.777-5.969-1.778-8.536 0l-15.541 10.754v-73.014h39.617zm305.843-88.013h-162.115c-4.142 0-7.5 3.358-7.5 7.5s3.358 7.5 7.5 7.5h162.116v22.396h-162.116c-4.142 0-7.5 3.358-7.5 7.5s3.358 7.5 7.5 7.5h162.116v18.389h-290.844v-55.785h63.285c4.142 0 7.5-3.358 7.5-7.5s-3.358-7.5-7.5-7.5h-136.227c-4.142 0-7.5 3.358-7.5 7.5s3.358 7.5 7.5 7.5h3.326v55.785h-3.326c-10.593 0-19.211-8.618-19.211-19.211v-50.751c0-10.593 8.618-19.211 19.211-19.211h120.586c4.142 0 7.5-3.358 7.5-7.5s-3.358-7.5-7.5-7.5h-46.328v-19.909c0-5.315 4.324-9.64 9.64-9.64h135.376c5.315 0 9.64 4.325 9.64 9.64v19.909h-73.328c-4.142 0-7.5 3.358-7.5 7.5s3.358 7.5 7.5 7.5h208.199z" fill="#ffffff" data-original="#000000" style="" class=""/></g></g></svg>
