<?xml version="1.0"?>
<svg xmlns="http://www.w3.org/2000/svg" xmlns:xlink="http://www.w3.org/1999/xlink" xmlns:svgjs="http://svgjs.com/svgjs" version="1.1" width="512" height="512" x="0" y="0" viewBox="0 0 512 512" style="enable-background:new 0 0 512 512" xml:space="preserve"><g><g xmlns="http://www.w3.org/2000/svg"><path d="m483.968 102.5c4.142 0 7.5-3.357 7.5-7.5v-77.891c0-9.434-7.697-17.109-17.158-17.109h-285.974c-9.461 0-17.158 7.675-17.158 17.109v86.981c-4.722-.973-9.584-1.449-14.53-1.361-48.569.749-80.311 54.83-56.847 97.548 18.527 33.731 28.319 73.283 28.319 114.381v34.667h-9.764c-18.158 0-32.931 14.759-32.931 32.899v5.538c-26.179 2.294-46.785 24.302-46.785 51.039v18.792h-10.608c-4.142 0-7.5 3.357-7.5 7.5v39.407c0 4.143 3.358 7.5 7.5 7.5h23.96c9.386 0 9.813-15 0-15h-16.46v-24.406h244.312v24.406h-189.484c-9.386 0-9.813 15 0 15h196.983c4.142 0 7.5-3.357 7.5-7.5v-39.406c0-4.143-3.358-7.5-7.5-7.5h-10.608v-14.545h111.412c2.013 0 3.914-.842 5.348-2.241l95.753-94.885c1.421-1.408 2.221-3.326 2.221-5.327v-208.596c0-9.386-15-9.813-15 0v200.473h-78.663c-9.461 0-17.158 7.675-17.158 17.108v78.468h-105.058c-4.654-21.681-23.072-38.308-45.64-40.286v-5.538c0-18.141-14.773-32.899-32.931-32.899h-9.764v-34.669c0-40.581 9.862-80.259 28.519-114.744 17.697-32.708 3.817-74.73-29.596-90.766v-92.038c0-1.163.968-2.109 2.158-2.109h285.974c1.19 0 2.158.946 2.158 2.109v77.891c0 4.143 3.358 7.5 7.5 7.5zm-88.321 247.081c0-1.162.968-2.108 2.158-2.108h68.023l-70.182 70.002v-67.894zm-170.215 52.972c20.018 0 36.303 16.262 36.303 36.249v18.792h-208.095v-18.792c0-19.987 16.285-36.249 36.303-36.249 0 0 134.478-.035 135.489 0zm-28.413-38.228c9.887 0 17.931 8.029 17.931 17.899v5.328h-114.524v-5.328c0-9.87 8.043-17.899 17.931-17.899zm-3.536-231.946c15.895 15.652 19.741 40.724 9.098 60.396-19.839 36.67-30.326 78.816-30.326 121.882v34.669h-29.135v-34.667c0-43.615-10.433-85.664-30.172-121.602-18.13-33.006 6.46-74.751 43.931-75.329 13.782-.202 26.793 4.99 36.604 14.651z" fill="#ffffff" data-original="#000000" style=""/><path d="m424.923 221.697h-187.2c-9.386 0-9.813 15 0 15h187.199c9.386 0 9.814-15 .001-15z" fill="#ffffff" data-original="#000000" style=""/><path d="m432.423 280.771c0-4.143-3.358-7.5-7.5-7.5h-187.2c-9.386 0-9.813 15 0 15h187.199c4.143 0 7.501-3.357 7.501-7.5z" fill="#ffffff" data-original="#000000" style=""/><path d="m237.723 324.847c-9.386 0-9.813 15 0 15h102.083c9.386 0 9.813-15 0-15z" fill="#ffffff" data-original="#000000" style=""/><path d="m305.935 181.893c8.324 3.188 16.883 4.696 25.308 4.696 28.541 0 55.51-17.332 66.32-45.5 6.784-17.677 6.27-36.933-1.448-54.223-7.717-17.287-21.711-30.539-39.405-37.313-36.524-13.982-77.627 4.323-91.627 40.804-6.784 17.677-6.27 36.934 1.448 54.224 7.716 17.287 21.71 30.538 39.404 37.312zm-26.848-86.161c8.523-22.21 29.789-35.875 52.298-35.875 6.644 0 13.397 1.191 19.962 3.704 13.953 5.342 24.987 15.79 31.07 29.419 6.083 13.626 6.488 28.803 1.142 42.733-11.04 28.767-43.457 43.196-72.261 32.171-13.952-5.342-24.986-15.789-31.07-29.418-6.082-13.626-6.488-28.803-1.141-42.734z" fill="#ffffff" data-original="#000000" style=""/><path d="m342.017 132.512-29.896-11.444c-8.765-3.358-14.527 10.501-5.362 14.008l29.896 11.444c8.594 3.292 14.633-10.46 5.362-14.008z" fill="#ffffff" data-original="#000000" style=""/><path d="m305.484 100.341 55.364 21.194c8.593 3.293 14.633-10.46 5.363-14.008l-55.364-21.194c-8.764-3.36-14.527 10.5-5.363 14.008z" fill="#ffffff" data-original="#000000" style=""/></g></g></svg>
