<?xml version="1.0"?>
<svg xmlns="http://www.w3.org/2000/svg" xmlns:xlink="http://www.w3.org/1999/xlink" xmlns:svgjs="http://svgjs.com/svgjs" version="1.1" width="512" height="512" x="0" y="0" viewBox="0 0 512 512" style="enable-background:new 0 0 512 512" xml:space="preserve"><g><g xmlns="http://www.w3.org/2000/svg"><g><path d="m464.344 238.811h-12.076v-129.811c0-4.218-3.482-7.623-7.73-7.497-4.105.123-7.27 3.704-7.27 7.811v129.496h-50.268c-4.143 0-7.5 3.358-7.5 7.5s3.357 7.5 7.5 7.5h77.344c9.692 0 17.578 7.886 17.578 17.578s-7.886 17.578-17.578 17.578h-153.227v-35.156h40.883c4.143 0 7.5-3.358 7.5-7.5s-3.357-7.5-7.5-7.5h-42.684c-5.424 0-10.091 3.291-12.118 7.979h-53.055c-1.817-4.662-6.344-7.979-11.641-7.979h-21.917c-5.297 0-9.824 3.318-11.641 7.979h-32.148v-6.438c0-6.347-3.408-11.899-8.479-14.967v-19.097c13.174-3.965 22.799-16.203 22.799-30.652 0-17.649-14.358-32.008-32.008-32.008h-25.294v-128.627h313.453v59c0 4.218 3.482 7.623 7.73 7.497 4.105-.123 7.27-3.704 7.27-7.811v-61.186c0-6.904-5.596-12.5-12.5-12.5h-318.453c-6.904 0-12.5 5.596-12.5 12.5v131.128h-22.401c-17.649 0-32.008 14.359-32.008 32.008 0 14.448 9.625 26.685 22.798 30.651v19.097c-5.071 3.068-8.479 8.62-8.479 14.967v62.073c0 6.347 3.408 11.899 8.479 14.967v19.097c-13.173 3.966-22.798 16.203-22.798 30.652 0 17.649 14.358 32.008 32.008 32.008h22.401v26.037h-58.619c-9.649 0-17.5 7.851-17.5 17.5v12.423h-.117c-9.649 0-17.5 7.851-17.5 17.5v26.892c0 6.893 5.607 12.5 12.5 12.5h412.189c6.904 0 12.5-5.596 12.5-12.5v-195.533h12.076c17.964 0 32.578-14.614 32.578-32.578s-14.613-32.578-32.577-32.578zm-219.342 22.979h51.115v19.197h-51.115zm-31.917-7.979h16.917v35.156h-16.917zm-46.289 7.979h31.289v19.197h-31.289zm-97.391-86.154c0-9.378 7.63-17.008 17.008-17.008h62.695c9.378 0 17.008 7.63 17.008 17.008 0 9.378-7.63 17.008-17.008 17.008h-62.695c-9.378.001-17.008-7.629-17.008-17.008zm16.82 129.289c-1.379 0-2.5-1.122-2.5-2.5v-62.073c0-1.378 1.121-2.5 2.5-2.5h63.071c1.379 0 2.5 1.122 2.5 2.5v62.073c0 1.378-1.121 2.5-2.5 2.5zm57.092 15v15.208h-51.114v-15.208zm-51.114-97.073v-15.208h51.114v15.208zm-5.79 161.297c-9.378 0-17.008-7.63-17.008-17.008s7.63-17.008 17.008-17.008h62.695c9.378 0 17.008 7.63 17.008 17.008s-7.63 17.008-17.008 17.008zm119.03 112.851h-175.365v-24.392c0-1.378 1.121-2.5 2.5-2.5h46.422c4.143 0 7.5-3.358 7.5-7.5s-3.357-7.5-7.5-7.5h-31.305v-12.423c0-1.378 1.121-2.5 2.5-2.5h135.13c1.379 0 2.5 1.122 2.5 2.5v12.423h-73.825c-4.143 0-7.5 3.358-7.5 7.5s3.357 7.5 7.5 7.5h88.943c1.379 0 2.5 1.122 2.5 2.5zm231.825 0h-216.825v-24.392c0-9.649-7.851-17.5-17.5-17.5h-.118v-12.423c0-9.649-7.851-17.5-17.5-17.5h-61.511v-26.037h25.294c17.649 0 32.008-14.358 32.008-32.008 0-14.449-9.625-26.686-22.799-30.652v-19.097c5.071-3.068 8.479-8.62 8.479-14.967v-6.438h32.148c1.817 4.662 6.344 7.979 11.641 7.979h21.917c5.297 0 9.824-3.318 11.641-7.979h53.055c2.027 4.688 6.694 7.979 12.118 7.979h127.951v193.035z" fill="#ffffff" data-original="#000000" style=""/><path d="m202.872 124.276c0 42.827 34.842 77.669 77.669 77.669s77.669-34.842 77.669-77.669-34.842-77.669-77.669-77.669-77.669 34.842-77.669 77.669zm140.338 0c0 34.556-28.113 62.669-62.669 62.669s-62.669-28.113-62.669-62.669 28.113-62.669 62.669-62.669 62.669 28.113 62.669 62.669z" fill="#ffffff" data-original="#000000" style=""/><path d="m259.147 116.045c-2.93-2.929-7.678-2.929-10.607 0s-2.929 7.678 0 10.606l23.069 23.069c1.465 1.464 3.385 2.197 5.304 2.197s3.839-.732 5.304-2.197l35.758-35.758c2.929-2.929 2.929-7.678 0-10.606-2.93-2.929-7.678-2.929-10.607 0l-30.454 30.455z" fill="#ffffff" data-original="#000000" style=""/><path d="m243.681 334.569c0 4.142 3.357 7.5 7.5 7.5h137.93c4.143 0 7.5-3.358 7.5-7.5s-3.357-7.5-7.5-7.5h-137.93c-4.143 0-7.5 3.358-7.5 7.5z" fill="#ffffff" data-original="#000000" style=""/><path d="m389.11 363.546h-71.11c-4.143 0-7.5 3.358-7.5 7.5s3.357 7.5 7.5 7.5h71.11c4.143 0 7.5-3.358 7.5-7.5s-3.357-7.5-7.5-7.5z" fill="#ffffff" data-original="#000000" style=""/><path d="m251.181 378.546h40.819c4.143 0 7.5-3.358 7.5-7.5s-3.357-7.5-7.5-7.5h-40.819c-4.143 0-7.5 3.358-7.5 7.5s3.357 7.5 7.5 7.5z" fill="#ffffff" data-original="#000000" style=""/><path d="m389.11 400.023h-137.93c-4.143 0-7.5 3.358-7.5 7.5s3.357 7.5 7.5 7.5h137.93c4.143 0 7.5-3.358 7.5-7.5s-3.357-7.5-7.5-7.5z" fill="#ffffff" data-original="#000000" style=""/><path d="m389.11 436.5h-36.11c-4.143 0-7.5 3.358-7.5 7.5s3.357 7.5 7.5 7.5h36.11c4.143 0 7.5-3.358 7.5-7.5s-3.357-7.5-7.5-7.5z" fill="#ffffff" data-original="#000000" style=""/><path d="m330 436.5h-78.819c-4.143 0-7.5 3.358-7.5 7.5s3.357 7.5 7.5 7.5h78.819c4.143 0 7.5-3.358 7.5-7.5s-3.357-7.5-7.5-7.5z" fill="#ffffff" data-original="#000000" style=""/></g></g></g></svg>
